<svg width="18" height="18" viewBox="0 0 18 18" fill="none" xmlns="http://www.w3.org/2000/svg">
<path d="M9 0C4.0374 0 0 4.0374 0 9C0 13.9626 4.0374 18 9 18C10.3194 18 11.6649 17.6661 12.9978 17.0064L12.2013 15.3927C11.1177 15.9282 10.0404 16.2 9 16.2C5.0301 16.2 1.8 12.9699 1.8 9C1.8 5.0301 5.0301 1.8 9 1.8C12.9699 1.8 16.2 5.0301 16.2 9V9.9C16.2 10.5228 15.9183 11.7 14.85 11.7C13.5936 11.7 13.5054 10.0629 13.5 9.9V5.4H11.7V5.4225C10.9253 4.82755 9.97675 4.50345 9 4.5C6.5187 4.5 4.5 6.5187 4.5 9C4.5 11.4813 6.5187 13.5 9 13.5C10.305 13.5 11.4732 12.9321 12.2958 12.0411C12.7674 12.8421 13.563 13.5 14.85 13.5C16.8957 13.5 18 11.6451 18 9.9V9C18 4.0374 13.9626 0 9 0ZM9 11.7C7.5114 11.7 6.3 10.4886 6.3 9C6.3 7.5114 7.5114 6.3 9 6.3C10.4886 6.3 11.7 7.5114 11.7 9C11.7 10.4886 10.4886 11.7 9 11.7Z" fill="#BABDC5"/>
</svg>
