<svg width="50" height="50" viewBox="0 0 50 50" fill="none" xmlns="http://www.w3.org/2000/svg">
<rect x="1.5" y="1.5" width="47" height="47" rx="10.5" fill="white" stroke="#F2F7FF" stroke-width="3"/>
<path d="M32.7778 26.7446V22.8C32.7778 19.2613 30.35 16.2803 27.0611 15.3838C26.7356 14.572 25.94 14 25 14C24.06 14 23.2644 14.572 22.9389 15.3838C19.65 16.2814 17.2222 19.2613 17.2222 22.8V26.7446L15.3256 28.6223C15.2222 28.7243 15.1402 28.8455 15.0843 28.979C15.0284 29.1124 14.9998 29.2555 15 29.4V31.6C15 31.8917 15.1171 32.1715 15.3254 32.3778C15.5338 32.5841 15.8164 32.7 16.1111 32.7H33.8889C34.1836 32.7 34.4662 32.5841 34.6746 32.3778C34.8829 32.1715 35 31.8917 35 31.6V29.4C35.0002 29.2555 34.9716 29.1124 34.9157 28.979C34.8598 28.8455 34.7778 28.7243 34.6744 28.6223L32.7778 26.7446ZM32.7778 30.5H17.2222V29.8554L19.1189 27.9777C19.2223 27.8757 19.3043 27.7545 19.3601 27.621C19.416 27.4876 19.4447 27.3445 19.4444 27.2V22.8C19.4444 19.7673 21.9367 17.3 25 17.3C28.0633 17.3 30.5556 19.7673 30.5556 22.8V27.2C30.5556 27.4926 30.6722 27.772 30.8811 27.9777L32.7778 29.8554V30.5ZM25 36C25.6881 36.0009 26.3594 35.7895 26.9205 35.3952C27.4817 35.0009 27.9048 34.4433 28.1311 33.8H21.8689C22.0952 34.4433 22.5183 35.0009 23.0795 35.3952C23.6406 35.7895 24.3119 36.0009 25 36Z" fill="#3F4859"/>
</svg>
