<svg width="25" height="22" viewBox="0 0 25 22" fill="none" xmlns="http://www.w3.org/2000/svg">
<path d="M12.5 8.55554C10.4675 8.55554 8.75 10.2349 8.75 12.2222C8.75 14.2095 10.4675 15.8889 12.5 15.8889C14.5325 15.8889 16.25 14.2095 16.25 12.2222C16.25 10.2349 14.5325 8.55554 12.5 8.55554Z" fill="white"/>
<path d="M22.5 3.66667H19.2675L15.8837 0.358112C15.7679 0.244394 15.6301 0.154209 15.4785 0.0927488C15.3268 0.0312891 15.1642 -0.000231549 15 1.28049e-06H10C9.83582 -0.000231549 9.67321 0.0312891 9.52154 0.0927488C9.36987 0.154209 9.23213 0.244394 9.11625 0.358112L5.7325 3.66667H2.5C1.12125 3.66667 0 4.763 0 6.11111V19.5556C0 20.9037 1.12125 22 2.5 22H22.5C23.8787 22 25 20.9037 25 19.5556V6.11111C25 4.763 23.8787 3.66667 22.5 3.66667ZM12.5 18.3333C9.1125 18.3333 6.25 15.5344 6.25 12.2222C6.25 8.91 9.1125 6.11111 12.5 6.11111C15.8875 6.11111 18.75 8.91 18.75 12.2222C18.75 15.5344 15.8875 18.3333 12.5 18.3333Z" fill="white"/>
</svg>
