<svg width="25" height="25" viewBox="0 0 25 25" fill="none" xmlns="http://www.w3.org/2000/svg">
<path d="M21.0502 0L25 3.94986L21.9889 6.96229L18.0391 3.01243L21.0502 0ZM6.58313 18.4169H10.533L20.1272 8.82268L16.1773 4.87281L6.58313 14.467V18.4169Z" fill="white"/>
<path d="M21.0659 22.3667H6.79113C6.7569 22.3667 6.72135 22.3799 6.68712 22.3799C6.64367 22.3799 6.60022 22.368 6.55546 22.3667H2.63324V3.93402H11.6481L14.2814 1.30078H2.63324C1.18101 1.30078 0 2.48047 0 3.93402V22.3667C0 23.8203 1.18101 25 2.63324 25H21.0659C21.7643 25 22.4341 24.7225 22.9279 24.2287C23.4217 23.7349 23.6992 23.0651 23.6992 22.3667V10.9542L21.0659 13.5875V22.3667Z" fill="white"/>
</svg>
