<svg width="21" height="15" viewBox="0 0 21 15" fill="none" xmlns="http://www.w3.org/2000/svg">
<path d="M10.5 0C2.5284 0 0.132634 7.08964 0.110702 7.16143L0 7.5L0.109658 7.83857C0.132634 7.91036 2.5284 15 10.5 15C18.4716 15 20.8674 7.91036 20.8893 7.83857L21 7.5L20.8903 7.16143C20.8674 7.08964 18.4716 0 10.5 0ZM10.5 11.7857C8.19614 11.7857 6.32256 9.86357 6.32256 7.5C6.32256 5.13643 8.19614 3.21429 10.5 3.21429C12.8039 3.21429 14.6774 5.13643 14.6774 7.5C14.6774 9.86357 12.8039 11.7857 10.5 11.7857Z" fill="#999999"/>
<path d="M10.5 5.35715C9.36792 5.35715 8.41129 6.33858 8.41129 7.5C8.41129 8.66143 9.36792 9.64286 10.5 9.64286C11.6321 9.64286 12.5887 8.66143 12.5887 7.5C12.5887 6.33858 11.6321 5.35715 10.5 5.35715Z" fill="#999999"/>
</svg>
