<svg width="30" height="27" viewBox="0 0 30 27" fill="none" xmlns="http://www.w3.org/2000/svg">
<path d="M29.9961 13.4999L22.4978 7.50062L22.4978 12.0001L9.00089 12.0001L9.00089 14.9998L22.4978 14.9998L22.4978 19.4993L29.9961 13.4999Z" fill="white"/>
<path d="M13.4984 26.9999C15.2717 27.0049 17.0284 26.6578 18.6666 25.9789C20.3049 25.3 21.7921 24.3027 23.0422 23.0449L20.9217 20.9241C18.9392 22.9069 16.3028 24.0003 13.4984 24.0003C10.6941 24.0003 8.05766 22.9069 6.07511 20.9241C4.09257 18.9414 2.99932 16.3047 2.99932 13.5C2.99932 10.6953 4.09257 8.05858 6.07512 6.07581C8.05766 4.09303 10.6941 2.99966 13.4984 2.99966C16.3028 2.99966 18.9392 4.09303 20.9217 6.07581L23.0422 3.95505C20.4943 1.40534 17.1051 -5.19042e-07 13.4984 -8.34347e-07C9.89174 -1.14965e-06 6.50252 1.40534 3.9546 3.95505C1.40518 6.50326 3.4029e-06 9.89288 3.08756e-06 13.5C2.77222e-06 17.1071 1.40518 20.4967 3.9546 23.0449C5.20472 24.3027 6.69198 25.3 8.33022 25.9789C9.96846 26.6578 11.7251 27.0049 13.4984 26.9999Z" fill="white"/>
</svg>
