<svg width="50" height="50" viewBox="0 0 50 50" fill="none" xmlns="http://www.w3.org/2000/svg">
<rect width="50" height="50" rx="8" fill="#E06472"/>
<path d="M16.4444 37H33.5556C34.9037 37 36 35.8787 36 34.5V15.75C36 14.3712 34.9037 13.25 33.5556 13.25H31.1111C31.1111 12.9185 30.9823 12.6005 30.7531 12.3661C30.5239 12.1317 30.213 12 29.8889 12H20.1111C19.787 12 19.4761 12.1317 19.2469 12.3661C19.0177 12.6005 18.8889 12.9185 18.8889 13.25H16.4444C15.0963 13.25 14 14.3712 14 15.75V34.5C14 35.8787 15.0963 37 16.4444 37ZM16.4444 15.75H18.8889V18.25H31.1111V15.75H33.5556V34.5H16.4444V15.75Z" fill="white"/>
<path d="M23.7778 26.4825L21.5864 24.2412L19.8582 26.0087L23.7778 30.0175L30.1419 23.5087L28.4137 21.7412L23.7778 26.4825Z" fill="white"/>
</svg>
