<svg width="50" height="50" viewBox="0 0 50 50" fill="none" xmlns="http://www.w3.org/2000/svg">
<rect width="50" height="50" rx="8" fill="#B55785"/>
<path d="M33.9753 28.4538V19.4963C33.9692 17.4888 32.6722 14.5 29.1236 14.5V12L24.2841 15.75L29.1236 19.5V17C31.3365 17 31.5446 18.9237 31.5555 19.5V28.4538C29.8133 28.9963 28.5308 30.65 28.5308 32.625C28.5308 35.0375 30.4303 37 32.7654 37C35.1005 37 37 35.0375 37 32.625C37 30.65 35.7175 28.9963 33.9753 28.4538ZM32.7654 34.5C31.7648 34.5 30.9506 33.6588 30.9506 32.625C30.9506 31.5912 31.7648 30.75 32.7654 30.75C33.766 30.75 34.5802 31.5912 34.5802 32.625C34.5802 33.6588 33.766 34.5 32.7654 34.5ZM22.4692 16.375C22.4692 13.9625 20.5697 12 18.2346 12C15.8995 12 14 13.9625 14 16.375C14 18.35 15.2825 20.0037 17.0247 20.5462V28.4538C15.2825 28.9963 14 30.65 14 32.625C14 35.0375 15.8995 37 18.2346 37C20.5697 37 22.4692 35.0375 22.4692 32.625C22.4692 30.65 21.1867 28.9963 19.4445 28.4538V20.5462C21.1867 20.0037 22.4692 18.35 22.4692 16.375ZM16.4198 16.375C16.4198 15.3412 17.234 14.5 18.2346 14.5C19.2352 14.5 20.0494 15.3412 20.0494 16.375C20.0494 17.4088 19.2352 18.25 18.2346 18.25C17.234 18.25 16.4198 17.4088 16.4198 16.375ZM20.0494 32.625C20.0494 33.6588 19.2352 34.5 18.2346 34.5C17.234 34.5 16.4198 33.6588 16.4198 32.625C16.4198 31.5912 17.234 30.75 18.2346 30.75C19.2352 30.75 20.0494 31.5912 20.0494 32.625Z" fill="white"/>
</svg>
