<svg width="50" height="50" viewBox="0 0 50 50" fill="none" xmlns="http://www.w3.org/2000/svg">
<rect width="50" height="50" rx="8" fill="#E98160"/>
<path d="M25.5 12C18.6075 12 13 17.6075 13 24.5C13 31.3925 18.6075 37 25.5 37C32.3925 37 38 31.3925 38 24.5C38 17.6075 32.3925 12 25.5 12ZM25.5 34.5C19.9863 34.5 15.5 30.0138 15.5 24.5C15.5 18.9863 19.9863 14.5 25.5 14.5C31.0138 14.5 35.5 18.9863 35.5 24.5C35.5 30.0138 31.0138 34.5 25.5 34.5Z" fill="white"/>
<path d="M26.75 18.25H24.25V25.0175L28.3663 29.1337L30.1337 27.3663L26.75 23.9825V18.25Z" fill="white"/>
</svg>
