<svg width="22" height="25" viewBox="0 0 22 25" fill="none" xmlns="http://www.w3.org/2000/svg">
<path d="M2.44444 25H19.5556C20.9037 25 22 23.8787 22 22.5V3.75C22 2.37125 20.9037 1.25 19.5556 1.25H17.1111C17.1111 0.918479 16.9823 0.600537 16.7531 0.366116C16.5239 0.131696 16.213 0 15.8889 0H6.11111C5.78696 0 5.47608 0.131696 5.24687 0.366116C5.01766 0.600537 4.88889 0.918479 4.88889 1.25H2.44444C1.09633 1.25 0 2.37125 0 3.75V22.5C0 23.8787 1.09633 25 2.44444 25ZM2.44444 3.75H4.88889V6.25H17.1111V3.75H19.5556V22.5H2.44444V3.75Z" fill="white"/>
<path d="M9.77782 14.4825L7.58638 12.2412L5.85815 14.0087L9.77782 18.0175L16.1419 11.5087L14.4137 9.74121L9.77782 14.4825Z" fill="white"/>
</svg>
