<svg width="24" height="27" viewBox="0 0 24 27" fill="none" xmlns="http://www.w3.org/2000/svg">
<path d="M21.3333 15.6411V10.8C21.3333 6.45705 18.42 2.79855 14.4733 1.6983C14.0827 0.702 13.128 0 12 0C10.872 0 9.91733 0.702 9.52667 1.6983C5.58 2.7999 2.66667 6.45705 2.66667 10.8V15.6411L0.390668 17.9455C0.266611 18.0707 0.168228 18.2195 0.101181 18.3833C0.0341335 18.5471 -0.000252599 18.7227 1.3969e-06 18.9V21.6C1.3969e-06 21.958 0.140477 22.3014 0.390526 22.5546C0.640574 22.8078 0.979713 22.95 1.33333 22.95H22.6667C23.0203 22.95 23.3594 22.8078 23.6095 22.5546C23.8595 22.3014 24 21.958 24 21.6V18.9C24.0003 18.7227 23.9659 18.5471 23.8988 18.3833C23.8318 18.2195 23.7334 18.0707 23.6093 17.9455L21.3333 15.6411ZM21.3333 20.25H2.66667V19.4589L4.94267 17.1544C5.06672 17.0293 5.16511 16.8805 5.23215 16.7167C5.2992 16.5529 5.33359 16.3773 5.33333 16.2V10.8C5.33333 7.07805 8.324 4.05 12 4.05C15.676 4.05 18.6667 7.07805 18.6667 10.8V16.2C18.6667 16.5591 18.8067 16.902 19.0573 17.1544L21.3333 19.4589V20.25ZM12 27C12.8257 27.0011 13.6313 26.7416 14.3047 26.2577C14.978 25.7738 15.4858 25.0896 15.7573 24.3H8.24267C8.51422 25.0896 9.02197 25.7738 9.69535 26.2577C10.3687 26.7416 11.1743 27.0011 12 27Z" fill="white"/>
</svg>
